<svg xmlns="http://www.w3.org/2000/svg" width="62.805" height="74.109" viewBox="0 0 62.805 74.109"><defs><style>.a{fill:#4a567c;}</style></defs><g transform="translate(-15.359)"><path class="a" d="M91.776,18.841H72.935a1.256,1.256,0,0,1-1.256-1.256V10.677a10.677,10.677,0,1,1,21.353,0v6.908A1.256,1.256,0,0,1,91.776,18.841ZM74.191,16.329H90.52V10.677a8.164,8.164,0,1,0-16.329,0Z" transform="translate(-35.595)"/><path class="a" d="M78.708,53.165H23.44a1.257,1.257,0,0,1-1.077-1.9l3.768-6.28a1.254,1.254,0,0,1,1.077-.61H74.94a1.255,1.255,0,0,1,1.077.61l3.768,6.28a1.257,1.257,0,0,1-1.077,1.9ZM25.659,50.653H76.49l-2.261-3.768H27.92Z" transform="translate(-4.314 -28.044)"/><path class="a" d="M76.906,112.94H16.615a1.256,1.256,0,0,1-1.254-1.32l2.512-48.987a1.257,1.257,0,0,1,1.255-1.192H74.395a1.256,1.256,0,0,1,1.255,1.192l2.512,48.987a1.256,1.256,0,0,1-1.256,1.32Zm-58.97-2.512H75.584L73.2,63.953H20.32Z" transform="translate(0 -38.831)"/><path class="a" d="M119.82,82.629a3.768,3.768,0,1,1,3.768-3.768A3.772,3.772,0,0,1,119.82,82.629Zm0-5.024a1.256,1.256,0,1,0,1.256,1.256A1.257,1.257,0,0,0,119.82,77.605Z" transform="translate(-63.639 -47.459)"/><path class="a" d="M68.62,82.629a3.768,3.768,0,1,1,3.768-3.768A3.772,3.772,0,0,1,68.62,82.629Zm0-5.024a1.256,1.256,0,1,0,1.256,1.256A1.257,1.257,0,0,0,68.62,77.605Z" transform="translate(-31.28 -47.459)"/><path class="a" d="M10.677,18.841A10.689,10.689,0,0,1,0,8.164V1.256a1.256,1.256,0,0,1,2.512,0V8.164a8.165,8.165,0,0,0,16.329,0V1.74a1.241,1.241,0,0,1-.1-.484A1.256,1.256,0,0,1,20,0h.1a1.256,1.256,0,0,1,1.256,1.256V8.164A10.689,10.689,0,0,1,10.677,18.841Z" transform="translate(57.437 62.019) rotate(180)"/></g></svg>