<svg xmlns="http://www.w3.org/2000/svg" width="16.82" height="16.82" viewBox="0 0 16.82 16.82"><defs><style>.a{fill:#a2dae7;}.b{fill:#8dd3e7;}.c{fill:#fc5b68;}.d{fill:#f04855;}</style></defs><path class="a" d="M32,216H47.08v9.28H32Z" transform="translate(-31.13 -208.46)"/><path class="b" d="M32,216H47.08v1.16H32Z" transform="translate(-31.13 -208.46)"/><path class="a" d="M8,136H24.82v2.9H8Z" transform="translate(-8 -131.36)"/><g transform="translate(2.03 4.64)"><path class="c" d="M208,136h2.32v12.18H208Z" transform="translate(-202.78 -136)"/><path class="c" d="M69.22,136l-2.9,6.38-.87-1.16H64L66.61,136Z" transform="translate(-64 -136)"/></g><path class="d" d="M114.59,9.39A2.32,2.32,0,0,0,112.464,8h-2.32a2.342,2.342,0,0,1,2.126,1.39l1.421,3.25h2.32Z" transform="translate(-106.441 -8)"/><g transform="translate(1.16 0)"><path class="c" d="M42.32,10.32a2.318,2.318,0,0,1,1.269-2.066A2.314,2.314,0,0,0,42.543,8H42.32a2.32,2.32,0,1,0,0,4.64h2.32A2.32,2.32,0,0,1,42.32,10.32Z" transform="translate(-40 -8)"/><path class="c" d="M209.421,9.39A2.32,2.32,0,0,1,211.547,8h2.32a2.342,2.342,0,0,0-2.126,1.39l-1.421,3.25H208Z" transform="translate(-201.91 -8)"/><path class="c" d="M314.32,10.32a2.318,2.318,0,0,0-1.269-2.066A2.314,2.314,0,0,1,314.1,8h.223a2.32,2.32,0,0,1,0,4.64H312A2.32,2.32,0,0,0,314.32,10.32Z" transform="translate(-302.14 -8)"/><path class="c" d="M272,136l2.9,6.38.87-1.16h1.45L274.61,136Z" transform="translate(-263.59 -131.36)"/></g><path class="d" d="M208,136h2.32v1.45H208Z" transform="translate(-200.75 -131.36)"/></svg>