<svg xmlns="http://www.w3.org/2000/svg" width="70.378" height="56.307" viewBox="0 0 70.378 56.307"><defs><style>.a{fill:#4a567c;}</style></defs><g transform="translate(0 -47.99)"><g transform="translate(0 47.99)"><g transform="translate(0)"><path class="a" d="M68.725,95.618c-.03-.026-.062-.052-.094-.075L36.358,72.033V66.685A9.383,9.383,0,1,0,25.883,56.21H2.345a1.173,1.173,0,1,0,0,2.346H36.358a1.173,1.173,0,0,0,0-2.346h-8.1a7.037,7.037,0,1,1,6.932,8.21,1.173,1.173,0,0,0-1.173,1.173V72.63a1.173,1.173,0,0,0,.482.948L67.2,97.405a2.628,2.628,0,0,1-1.8,4.546H5.134A2.788,2.788,0,0,1,3.058,97.3L31.181,76.969a1.173,1.173,0,1,0-1.375-1.9L1.591,95.467a1.248,1.248,0,0,0-.158.137,5.135,5.135,0,0,0,3.7,8.693H65.4a4.975,4.975,0,0,0,3.329-8.679Z" transform="translate(0 -47.99)"/></g></g><g transform="translate(46.914 56.21)"><g transform="translate(0 0)"><path class="a" d="M341.109,104.054H321.171a1.173,1.173,0,0,0,0,2.346h19.939a1.173,1.173,0,0,0,0-2.346Z" transform="translate(-319.998 -104.054)"/></g></g></g></svg>