<svg xmlns="http://www.w3.org/2000/svg" width="9.335" height="9.288" viewBox="0 0 9.335 9.288"><defs><style>.a{fill:#322f27;}</style></defs><g transform="translate(0 -0.261)"><path class="a" d="M8.616,44.1a.232.232,0,0,0-.232.232v2.064a.7.7,0,0,1-.7.7H1.162a.7.7,0,0,1-.7-.7V40.335a.7.7,0,0,1,.7-.7H3.227a.232.232,0,0,0,0-.465H1.162A1.164,1.164,0,0,0,0,40.335v6.059a1.164,1.164,0,0,0,1.162,1.162H7.686a1.164,1.164,0,0,0,1.162-1.162V44.329a.232.232,0,0,0-.232-.232Zm0,0" transform="translate(0 -38.007)"/><path class="a" d="M114.431.567a1.046,1.046,0,0,0-1.48,0L108.8,4.715a.232.232,0,0,0-.06.1L108.2,6.787a.232.232,0,0,0,.286.286l1.969-.546a.232.232,0,0,0,.1-.06L114.7,2.32a1.047,1.047,0,0,0,0-1.48Zm-5.121,4.3,3.395-3.395L113.8,2.566l-3.395,3.395Zm-.219.439.875.875-1.21.335Zm5.284-3.314-.247.247-1.095-1.095L113.28.9a.581.581,0,0,1,.822,0l.273.273A.582.582,0,0,1,114.375,1.991Zm0,0" transform="translate(-105.675)"/></g></svg>