<svg xmlns="http://www.w3.org/2000/svg" width="16.734" height="12.55" viewBox="0 0 16.734 12.55"><defs><style>.a{fill:#77838f;}</style></defs><path class="a" d="M15.165,59.882H1.569A1.57,1.57,0,0,0,0,61.451v9.413a1.57,1.57,0,0,0,1.569,1.569h13.6a1.57,1.57,0,0,0,1.569-1.569V61.451A1.57,1.57,0,0,0,15.165,59.882Zm0,1.046a.52.52,0,0,1,.2.04l-7,6.066-7-6.066a.52.52,0,0,1,.2-.04Zm0,10.458H1.569a.523.523,0,0,1-.523-.523v-8.79l6.978,6.048a.524.524,0,0,0,.685,0l6.978-6.048v8.79A.523.523,0,0,1,15.165,71.386Z" transform="translate(0 -59.882)"/></svg>