<svg xmlns="http://www.w3.org/2000/svg" width="17.999" height="18" viewBox="0 0 17.999 18"><g transform="translate(-0.003 0)"><g transform="translate(0.003 0)"><g transform="translate(0 0)"><path d="M17.931,16.3,16.7,12.7A8.794,8.794,0,1,0,8.8,17.6h.014a8.829,8.829,0,0,0,3.888-.911l3.6,1.236a1.292,1.292,0,0,0,.42.071,1.283,1.283,0,0,0,1.209-1.7Zm-1.06.568a.206.206,0,0,1-.222.051L12.839,15.61a.534.534,0,0,0-.423.033,7.732,7.732,0,1,1,3.23-3.23.534.534,0,0,0-.033.423l1.309,3.811A.206.206,0,0,1,16.871,16.868Z" transform="translate(-0.003 0)"/></g></g><g transform="translate(8.184 12.752)"><path d="M233.253,362.748a.534.534,0,1,0,.534.534A.54.54,0,0,0,233.253,362.748Z" transform="translate(-232.719 -362.748)"/></g><g transform="translate(6.063 4.488)"><path d="M175.05,127.674a2.658,2.658,0,0,0-2.655,2.655.534.534,0,1,0,1.067,0,1.588,1.588,0,1,1,1.588,1.588.534.534,0,0,0-.534.534v2.176a.534.534,0,1,0,1.067,0v-1.7a2.655,2.655,0,0,0-.534-5.256Z" transform="translate(-172.395 -127.674)"/></g></g></svg>