<svg xmlns="http://www.w3.org/2000/svg" width="31.667" height="30.971" viewBox="0 0 31.667 30.971"><defs><style>.a{fill:#322f27;}</style></defs><g transform="translate(0.001)"><path class="a" d="M33.627,23.579a1.6,1.6,0,0,1-1.26-.613L22.106,9.716l4.525-4.365q1.776-1.7,3.616-3.338A6.979,6.979,0,0,1,34.737.58c.016,0,0-.563,0-.563H25.889v.53l1.368.022A9.5,9.5,0,0,1,28.7.686a.546.546,0,0,1,.379.8,8.185,8.185,0,0,1-1.277,1.705c-2.278,2.317-8.061,7.876-8.716,8.5-.013-1.141,0-11.137,0-11.137h3.438V0H12.505V.563l3.049,0,.007,23H12.392v.628c0-.009,10.094,0,10.094,0v-.611H19.065l0-10.867c-.005,0,.249-.212.426-.359.333.413.719.891.723.893l7.862,10.324h-3.1v.627H35.638v-.611l-2.011,0Z" transform="translate(-4.228)"/><path class="a" d="M8.211,6.019a4.253,4.253,0,0,0-3.629-.735A5.526,5.526,0,0,0,1.8,7.034a7.566,7.566,0,0,0-1.333,7.5,6.377,6.377,0,0,0,3.282,3.69,5.415,5.415,0,0,0,2.01.43,2.022,2.022,0,0,0,.282-.015,4.836,4.836,0,0,0,2.419-1.034c.257-.206.613-.484.945-.262.246.161.331.775.334.779h.329l0-4.313-.333,0s-.023.379-.027.549a3.739,3.739,0,0,1-.383,1.411c-.078.15-.157.3-.237.443a3.809,3.809,0,0,1-4.265,1.977,3.064,3.064,0,0,1-1.891-1.736,12.494,12.494,0,0,1-.677-6.546,14.527,14.527,0,0,1,.354-1.754A3.9,3.9,0,0,1,4.249,5.9a2.173,2.173,0,0,1,.49-.233A3.6,3.6,0,0,1,8.666,6.847a5.245,5.245,0,0,1,1.052,2.44c.015.126.059.377.059.377h.308l0-3.907H9.723s0,.153,0,.227c-.009.386-.428.517-.762.461a1.763,1.763,0,0,1-.748-.426ZM31.1.073V.134h-.155V.583h-.063V.134h-.155V.073Zm.126,0h.09L31.447.5l.131-.432h.088v.51h-.059V.153l-.131.43h-.062l-.132-.43v.43h-.06V.073Z" transform="translate(0 -0.025)"/><g transform="translate(3.494 26.92)"><path class="a" d="M12.76,44.789h-.308v-.423a1.12,1.12,0,0,1-.947.48,1.274,1.274,0,0,1-1.289-1.263,1.261,1.261,0,0,1,1.294-1.259,1.145,1.145,0,0,1,.942.484v-.427h.308v2.407Zm.567-3.809h.308v3.809h-.308Zm3.318,1.4h.308v2.408h-.308Zm.811,0h.308v.313a.793.793,0,0,1,.679-.347c.656,0,.956.438.956,1.133v1.309h-.308V43.48c0-.52-.181-.856-.644-.856a.651.651,0,0,0-.614.378,1.129,1.129,0,0,0-.07.466v1.32h-.308V42.381Zm6.072-1.4h.308v3.809H23.53Z" transform="translate(-6.979 -40.901)"/><circle class="a" cx="0.188" cy="0.188" r="0.188" transform="translate(9.667 0.061)"/><path class="a" d="M36.125,43.107h.308v2.408h-.308Z" transform="translate(-15.819 -41.627)"/><circle class="a" cx="0.188" cy="0.188" r="0.188" transform="translate(20.307 0.061)"/><path class="a" d="M8.258,44.1a1.635,1.635,0,1,1,.03-2.558l.206-.238a1.95,1.95,0,1,0-.025,3.03Zm3.966-1.758L13.4,44.911l1.223-2.568h-.334L13.4,44.211l-.845-1.868Zm14.23,0h.308v.313a.793.793,0,0,1,.679-.347c.656,0,.956.438.956,1.133v1.309H28.09V43.439c0-.52-.181-.856-.644-.856a.651.651,0,0,0-.614.378,1.129,1.129,0,0,0-.07.466v1.32h-.308V42.34Zm-7.353-1.4h.333v1.727l1.617-1.727h.409l-1.53,1.685,1.5,2.124h-.4l-1.316-1.887-.278.275v1.612H19.1Z" transform="translate(-5.303 -40.86)"/><path class="a" d="M11.661,45.409a.985.985,0,0,0,0-1.968.984.984,0,0,0,0,1.968Z" transform="translate(-7.139 -41.741)"/><path class="a" d="M32.855,45.265a.955.955,0,0,1-.934-.876h2.2a1.355,1.355,0,0,0-.084-.559,1.261,1.261,0,1,0-1.176,1.712,1.281,1.281,0,0,0,1.1-.645l-.264-.165A.947.947,0,0,1,32.855,45.265Zm0-1.968a.976.976,0,0,1,.938.814H31.931A.954.954,0,0,1,32.859,43.3Z" transform="translate(-14.273 -41.597)"/></g></g></svg>