<svg xmlns="http://www.w3.org/2000/svg" width="16.52" height="14.381" viewBox="0 0 16.52 14.381"><defs><style>.a{fill:#77838f;}</style></defs><g transform="translate(-1.749 -9.808)"><path class="a" d="M11.336,24.609a4.793,4.793,0,1,0-5.324,4.764v1.44H5v1.062H6.012v.994H7.073v-.994H8.085V30.814H7.073V29.373A4.8,4.8,0,0,0,11.336,24.609Zm-8.525,0a3.732,3.732,0,1,1,3.732,3.732A3.732,3.732,0,0,1,2.81,24.609Z" transform="translate(0 -8.68)"/><g transform="translate(7.353 9.808)"><path class="a" d="M65.528,9.808l.82.82-1.561,1.561a4.778,4.778,0,0,0-5.793-.144,4.829,4.829,0,0,1,.806.735,3.732,3.732,0,1,1,0,6.3,4.835,4.835,0,0,1-.806.735,4.79,4.79,0,0,0,6.544-6.877l1.56-1.561.82.82V9.808Z" transform="translate(-57.003 -9.808)"/><path class="a" d="M45.173,32.2a4.78,4.78,0,0,0,0,6.3,3.758,3.758,0,0,0,.806-.69,3.721,3.721,0,0,1,0-4.922A3.755,3.755,0,0,0,45.173,32.2Z" transform="translate(-43.987 -29.229)"/></g></g></svg>