<svg xmlns="http://www.w3.org/2000/svg" width="19.435" height="22.42" viewBox="0 0 19.435 22.42"><defs><style>.a{fill:#77838f;}</style></defs><g transform="translate(0)"><g transform="translate(0)"><path class="a" d="M51.025,6.3H49.179A3.118,3.118,0,0,0,44.07,2.985L43.95,3.1a3.225,3.225,0,0,0-1-2.208,3.459,3.459,0,0,0-2.38-.9,3.526,3.526,0,0,0-3.387,3.643A3.782,3.782,0,0,0,38.236,6.3H36a2.212,2.212,0,0,0-2.2,2.212v.614a2.189,2.189,0,0,0,1.413,2.067v9a2.235,2.235,0,0,0,2.226,2.221H49.594A2.238,2.238,0,0,0,51.82,20.2v-9a2.189,2.189,0,0,0,1.413-2.067V8.519A2.219,2.219,0,0,0,51.025,6.3Zm-7.07-1.153a2.366,2.366,0,0,1,2.3-2.182,2.246,2.246,0,0,1,2.243,2.239,2.319,2.319,0,0,1-.278,1.1H43.955ZM38.064,3.643a2.646,2.646,0,0,1,2.5-2.764,2.566,2.566,0,0,1,1.775.662,2.336,2.336,0,0,1,.724,1.766V6.3H39.852A2.753,2.753,0,0,1,38.064,3.643ZM34.681,9.128V8.519A1.326,1.326,0,0,1,36,7.189h7.07v3.268H36A1.334,1.334,0,0,1,34.681,9.128ZM50.932,20.2a1.352,1.352,0,0,1-1.342,1.338H37.437A1.352,1.352,0,0,1,36.094,20.2V11.336H50.932ZM52.345,9.128a1.322,1.322,0,0,1-1.32,1.325h-7.07V7.185h7.07a1.329,1.329,0,0,1,1.32,1.329Z" transform="translate(-33.798)"/></g></g></svg>