<svg xmlns="http://www.w3.org/2000/svg" width="21.215" height="18.874" viewBox="0 0 21.215 18.874"><defs><style>.a{fill:#77838f;}</style></defs><path class="a" d="M10.607,18.874a1.244,1.244,0,0,1-.82-.308c-.857-.749-1.683-1.454-2.412-2.075l0,0A44.863,44.863,0,0,1,2.1,11.544,7.9,7.9,0,0,1,0,6.376,6.631,6.631,0,0,1,1.683,1.847,5.7,5.7,0,0,1,5.927,0,5.336,5.336,0,0,1,9.26,1.151a6.82,6.82,0,0,1,1.348,1.407,6.82,6.82,0,0,1,1.348-1.407A5.336,5.336,0,0,1,15.288,0a5.7,5.7,0,0,1,4.244,1.847,6.631,6.631,0,0,1,1.683,4.529,7.9,7.9,0,0,1-2.1,5.169,44.858,44.858,0,0,1-5.267,4.944c-.73.622-1.558,1.328-2.417,2.079a1.245,1.245,0,0,1-.82.308ZM5.927,1.243A4.476,4.476,0,0,0,2.6,2.689,5.394,5.394,0,0,0,1.243,6.376a6.644,6.644,0,0,0,1.818,4.376,44.148,44.148,0,0,0,5.116,4.791l0,0c.732.624,1.561,1.331,2.425,2.086.869-.756,1.7-1.464,2.433-2.089a44.16,44.16,0,0,0,5.116-4.791,6.644,6.644,0,0,0,1.818-4.376,5.394,5.394,0,0,0-1.354-3.686,4.475,4.475,0,0,0-3.33-1.447,4.122,4.122,0,0,0-2.573.891,6.03,6.03,0,0,0-1.434,1.659.784.784,0,0,1-1.348,0A6.025,6.025,0,0,0,8.5,2.134a4.121,4.121,0,0,0-2.573-.891Zm0,0" transform="translate(0)"/></svg>