<svg xmlns="http://www.w3.org/2000/svg" width="24.958" height="23.428" viewBox="0 0 24.958 23.428"><defs><style>.a{fill:#77838f;stroke:#f7f8f7;stroke-width:0.5px;}</style></defs><g transform="translate(0.25 -15.767)"><path class="a" d="M58.439,206.486H42.2a2.2,2.2,0,0,1-2.2-2.2V192.727a.764.764,0,0,1,1.529,0v11.561a.669.669,0,0,0,.669.669H58.439a.669.669,0,0,0,.669-.669V192.727a.764.764,0,0,1,1.529,0v11.561A2.2,2.2,0,0,1,58.439,206.486Z" transform="translate(-38.089 -167.541)"/><path class="a" d="M23.694,27.861a.762.762,0,0,1-.54-.224l-9.506-9.505a2.009,2.009,0,0,0-2.837,0L1.305,27.637A.764.764,0,0,1,.224,26.556L9.73,17.051a3.539,3.539,0,0,1,5,0l9.506,9.506a.764.764,0,0,1-.54,1.3Z" transform="translate(0)"/><path class="a" d="M182.879,297.919h-6.114a.764.764,0,0,1-.764-.764v-6.783a2.391,2.391,0,0,1,2.388-2.388h2.866a2.391,2.391,0,0,1,2.388,2.388v6.783A.764.764,0,0,1,182.879,297.919Zm-5.35-1.529h4.586v-6.019a.861.861,0,0,0-.86-.86h-2.866a.861.861,0,0,0-.86.86Z" transform="translate(-167.592 -258.974)"/></g></svg>