<svg xmlns="http://www.w3.org/2000/svg" width="11.019" height="14.692" viewBox="0 0 11.019 14.692"><defs><style>.a{fill:#77838f;}</style></defs><g transform="translate(-3)"><path class="a" d="M12.642,18.183H4.377A1.379,1.379,0,0,1,3,16.805V10.377A1.379,1.379,0,0,1,4.377,9h8.264a1.379,1.379,0,0,1,1.377,1.377v6.428A1.379,1.379,0,0,1,12.642,18.183ZM4.377,9.918a.46.46,0,0,0-.459.459v6.428a.46.46,0,0,0,.459.459h8.264a.46.46,0,0,0,.459-.459V10.377a.46.46,0,0,0-.459-.459Z" transform="translate(0 -3.49)"/><path class="a" d="M12.887,6.428a.459.459,0,0,1-.459-.459v-2.3a2.755,2.755,0,0,0-5.51,0v2.3a.459.459,0,1,1-.918,0v-2.3a3.673,3.673,0,1,1,7.346,0v2.3A.459.459,0,0,1,12.887,6.428Z" transform="translate(-1.163)"/><path class="a" d="M11.224,15.449a1.224,1.224,0,1,1,1.224-1.224A1.226,1.226,0,0,1,11.224,15.449Zm0-1.53a.306.306,0,1,0,.306.306A.307.307,0,0,0,11.224,13.918Z" transform="translate(-2.715 -5.042)"/><path class="a" d="M11.709,18.352a.459.459,0,0,1-.459-.459V16.209a.459.459,0,0,1,.918,0v1.683A.459.459,0,0,1,11.709,18.352Z" transform="translate(-3.2 -6.108)"/></g></svg>