<svg xmlns="http://www.w3.org/2000/svg" width="9.134" height="16.119" viewBox="0 0 9.134 16.119"><defs><style>.a{fill:#77838f;}</style></defs><g transform="translate(-110.933)"><g transform="translate(113.888 0.806)"><g transform="translate(0)"><path class="a" d="M207.756,25.6H205.07a.269.269,0,1,0,0,.537h2.686a.269.269,0,0,0,0-.537Z" transform="translate(-204.801 -25.6)"/></g></g><g transform="translate(118.187 0.806)"><g transform="translate(0)"><path class="a" d="M341.871,25.6H341.6a.269.269,0,1,0,0,.537h.269a.269.269,0,0,0,0-.537Z" transform="translate(-341.334 -25.6)"/></g></g><g transform="translate(114.425 13.701)"><g transform="translate(0)"><path class="a" d="M223.275,435.2h-.667a.742.742,0,0,0-.741.741v.13a.742.742,0,0,0,.741.741h.667a.742.742,0,0,0,.741-.741v-.13A.742.742,0,0,0,223.275,435.2Zm.2.871a.2.2,0,0,1-.2.2h-.667a.2.2,0,0,1-.2-.2v-.13a.2.2,0,0,1,.2-.2h.667a.2.2,0,0,1,.2.2Z" transform="translate(-221.867 -435.2)"/></g></g><g transform="translate(110.933)"><g transform="translate(0)"><path class="a" d="M119.1,0H111.9a.972.972,0,0,0-.971.971V15.148a.972.972,0,0,0,.971.971H119.1a.972.972,0,0,0,.971-.971V.971A.972.972,0,0,0,119.1,0Zm.434,15.148a.434.434,0,0,1-.434.434H111.9a.434.434,0,0,1-.434-.434V.971A.434.434,0,0,1,111.9.537H119.1a.434.434,0,0,1,.434.434V15.148Z" transform="translate(-110.933)"/></g></g><g transform="translate(110.933 1.612)"><path class="a" d="M119.8,51.2h-8.6a.269.269,0,0,0-.269.269V62.752a.269.269,0,0,0,.269.269h8.6a.269.269,0,0,0,.269-.269V51.469A.269.269,0,0,0,119.8,51.2Zm-.269,11.283h-8.059V51.737h8.059Z" transform="translate(-110.934 -51.2)"/></g></g></svg>