<svg xmlns="http://www.w3.org/2000/svg" width="18.378" height="15.003" viewBox="0 0 18.378 15.003"><defs><style>.a{fill:#322f27;}</style></defs><g transform="translate(0)"><g transform="translate(0 0)"><path class="a" d="M18,53.771H16.5v-1.5A1.88,1.88,0,0,0,14.625,50.4H1.878a1.868,1.868,0,0,0-1.128.38V48.894A1.127,1.127,0,0,1,1.878,47.77H14.625A1.129,1.129,0,0,1,15.753,48.9v.58a.375.375,0,0,0,.75,0V48.9a1.88,1.88,0,0,0-1.878-1.877H1.878A1.878,1.878,0,0,0,0,48.894V60.147a1.879,1.879,0,0,0,1.878,1.876H14.625A1.878,1.878,0,0,0,16.5,60.149V57.522H18a.375.375,0,0,0,.375-.375v-3A.375.375,0,0,0,18,53.771Zm-2.25,6.378a1.127,1.127,0,0,1-1.128,1.124H1.878A1.128,1.128,0,0,1,.75,60.147V52.272a1.128,1.128,0,0,1,1.128-1.126H14.625a1.129,1.129,0,0,1,1.128,1.128v1.5h-3a.375.375,0,0,0-.375.375v3a.375.375,0,0,0,.375.375h3Zm1.875-3.377h-4.5v-2.25h4.5Z" transform="translate(0 -47.02)"/></g><g transform="translate(2.25 1.5)"><rect class="a" width="12.383" height="0.75"/></g></g></svg>