<svg xmlns="http://www.w3.org/2000/svg" width="23.309" height="12.314" viewBox="0 0 23.309 12.314"><defs><style>.a{fill:#322f27;}</style></defs><g transform="translate(0 0)"><g transform="translate(0 2.199)"><g transform="translate(0 0)"><path class="a" d="M20.67,169.057H.44a.44.44,0,0,0-.44.44v9.236a.44.44,0,0,0,.44.44H20.67a.44.44,0,0,0,.44-.44V169.5A.44.44,0,0,0,20.67,169.057Zm-19.79.88H2.594A2.205,2.205,0,0,1,.88,171.651Zm0,8.356v-1.715a2.205,2.205,0,0,1,1.715,1.715Zm19.351,0H18.515a2.205,2.205,0,0,1,1.715-1.715Zm0-2.607a3.085,3.085,0,0,0-2.607,2.607H3.486A3.085,3.085,0,0,0,.88,175.686v-3.142a3.085,3.085,0,0,0,2.607-2.607H17.623a3.085,3.085,0,0,0,2.607,2.607Zm0-4.034a2.205,2.205,0,0,1-1.715-1.715H20.23Z" transform="translate(0 -169.057)"/></g></g><g transform="translate(7.916 4.398)"><path class="a" d="M176.746,217.358a2.859,2.859,0,1,0,2.859,2.859A2.862,2.862,0,0,0,176.746,217.358Zm0,4.838a1.979,1.979,0,1,1,1.979-1.979A1.981,1.981,0,0,1,176.746,222.2Z" transform="translate(-173.887 -217.358)"/></g><g transform="translate(2.639 0)"><path class="a" d="M78.192,120.755H57.962v.88h19.79v8.8h.88v-9.236A.44.44,0,0,0,78.192,120.755Z" transform="translate(-57.962 -120.755)"/></g></g></svg>