<svg xmlns="http://www.w3.org/2000/svg" width="26.025" height="20.315" viewBox="0 0 26.025 20.315"><defs><style>.a{fill:#322f27;}</style></defs><g transform="translate(0)"><g transform="translate(17.82 0)"><g transform="translate(0 0)"><path class="a" d="M358.758,59.129a.476.476,0,0,0-.385-.324l-2.258-.328-1.01-2.046a.477.477,0,0,0-.855,0l-1.01,2.046-2.258.328a.476.476,0,0,0-.264.813l1.634,1.592-.386,2.248a.476.476,0,0,0,.691.5l2.019-1.061L356.7,63.96a.477.477,0,0,0,.692-.5L357,61.21l1.634-1.592A.477.477,0,0,0,358.758,59.129Zm-2.6,1.573a.477.477,0,0,0-.137.422l.265,1.544-1.386-.729a.476.476,0,0,0-.444,0l-1.386.729.265-1.544a.477.477,0,0,0-.137-.422l-1.121-1.093,1.55-.225a.476.476,0,0,0,.359-.261l.693-1.4.693,1.4a.476.476,0,0,0,.359.261l1.55.225Z" transform="translate(-350.576 -56.165)"/></g></g><g transform="translate(0 3.813)"><g transform="translate(0 0)"><path class="a" d="M23.829,136.2a.477.477,0,0,0-.477.477v4.979a.477.477,0,0,1-.477.477H9.055V132.6a.479.479,0,0,1,.48-.477h6.843a.477.477,0,0,0,0-.953H9.535A1.433,1.433,0,0,0,8.1,132.6v1.429H4.766a.477.477,0,0,0-.354.158L.122,138.955a.476.476,0,0,0-.122.319v3.336a.477.477,0,0,0,.477.477h1.2a3.337,3.337,0,1,0,6.185,0H17.4a3.337,3.337,0,1,0,6.117-.154,1.43,1.43,0,0,0,.789-1.276v-4.979A.477.477,0,0,0,23.829,136.2ZM4.766,146.721a2.382,2.382,0,0,1-2.027-3.635H6.792a2.359,2.359,0,0,1,.356,1.252A2.386,2.386,0,0,1,4.766,146.721ZM8.1,142.133H.953v-2.677l1.882-2.092.024,0H8.1v4.766Zm0-5.719H3.691l1.287-1.43H8.1Zm12.391,10.307a2.382,2.382,0,0,1-2.027-3.635h4.053a2.36,2.36,0,0,1,.356,1.252A2.386,2.386,0,0,1,20.493,146.721Z" transform="translate(0 -131.172)"/></g></g><g transform="translate(3.813 16.203)"><g transform="translate(0 0)"><ellipse class="a" cx="0.953" cy="0.953" rx="0.953" ry="0.953"/></g></g><g transform="translate(19.539 16.203)"><g transform="translate(0 0)"><ellipse class="a" cx="0.953" cy="0.953" rx="0.953" ry="0.953"/></g></g></g></svg>