<svg xmlns="http://www.w3.org/2000/svg" width="20.138" height="21.264" viewBox="0 0 20.138 21.264"><defs><style>.a{fill:#322f27;}</style></defs><g transform="translate(0)"><g transform="translate(0 0)"><g transform="translate(13.539 13.932)"><path class="a" d="M346.148,338.014h-5.321l1.94-1.941a.367.367,0,0,0-.518-.518l-2.592,2.592a.366.366,0,0,0,0,.518l2.592,2.592a.367.367,0,0,0,.518-.518l-1.993-1.993h5.373v-.733Z" transform="translate(-339.549 -335.448)"/></g><path class="a" d="M32.1,12.067l-.58-6.236a1.182,1.182,0,0,0-1.167-1.065H28.571a5.131,5.131,0,0,0-10.236,0H16.057A1.18,1.18,0,0,0,14.89,5.828L13.559,20.135a1.023,1.023,0,0,0,1.031,1.129H27.054a.367.367,0,1,0,0-.733H14.59a.291.291,0,0,1-.3-.328L15.62,5.9a.452.452,0,0,1,.437-.4H18.32V7.014a1.466,1.466,0,1,0,.733,0V5.5h8.8V7.014a1.466,1.466,0,1,0,.733,0V5.5h1.768a.455.455,0,0,1,.437.4l.58,6.235a.367.367,0,0,0,.73-.068ZM19.42,8.432a.733.733,0,1,1-1.1-.634v.634a.367.367,0,1,0,.733,0V7.8A.733.733,0,0,1,19.42,8.432Zm-.35-3.666a4.4,4.4,0,0,1,8.766,0Zm9.882,3.666a.733.733,0,1,1-1.1-.634v.634a.367.367,0,1,0,.733,0V7.8A.733.733,0,0,1,28.952,8.432Z" transform="translate(-13.554)"/></g></g></svg>