<svg xmlns="http://www.w3.org/2000/svg" width="12.11" height="25.836" viewBox="0 0 12.11 25.836"><g transform="translate(-136)"><g transform="translate(136)"><g transform="translate(0)"><path d="M147.707,0H136.4a.4.4,0,0,0-.4.4V25.432a.4.4,0,0,0,.4.4h4.44a.4.4,0,0,0,.4-.384l.788-16.167h.04l.786,16.167a.4.4,0,0,0,.4.384h4.44a.4.4,0,0,0,.4-.4V.4A.4.4,0,0,0,147.707,0Zm-3.633.807H147.3v.807h-3.229Zm-7.266,0h3.229v.807h-3.229Zm4.844,7.67a.4.4,0,0,0-.4.384l-.788,16.167h-3.652V2.422h4.844Zm-.807-6.863V.807h2.422v.807Zm6.305,23.445-3.652-.05-.569-16.176a.4.4,0,0,0-.4-.389l.081-6.055,4.844.066Z" transform="translate(-136)"/></g></g><g transform="translate(145.688 20.184)"><g transform="translate(0)"><path d="M328.4,400a.4.4,0,0,0-.4.4v.4a.4.4,0,1,0,.807,0v-.4A.4.4,0,0,0,328.4,400Z" transform="translate(-328 -400)"/></g></g><g transform="translate(145.688 21.799)"><g transform="translate(0)"><path d="M328.4,432a.4.4,0,0,0-.4.4v.4a.4.4,0,0,0,.807,0v-.4A.4.4,0,0,0,328.4,432Z" transform="translate(-328 -432)"/></g></g><g transform="translate(145.688 23.413)"><g transform="translate(0)"><path d="M328.4,464a.4.4,0,0,0-.4.4v.4a.4.4,0,1,0,.807,0v-.4A.4.4,0,0,0,328.4,464Z" transform="translate(-328 -464)"/></g></g></g></svg>