<svg xmlns="http://www.w3.org/2000/svg" width="18.301" height="21.112" viewBox="0 0 18.301 21.112"><defs><style>.a{fill:#322f27;}</style></defs><g transform="translate(0)"><g transform="translate(0)"><g transform="translate(0)"><path class="a" d="M50.02,5.934H48.281A2.936,2.936,0,0,0,43.47,2.811l-.112.112A3.037,3.037,0,0,0,42.414.844,3.258,3.258,0,0,0,40.173,0a3.32,3.32,0,0,0-3.189,3.431,3.561,3.561,0,0,0,.994,2.5h-2.1A2.083,2.083,0,0,0,33.8,8.017V8.6a2.062,2.062,0,0,0,1.331,1.946V19.02a2.1,2.1,0,0,0,2.1,2.092H48.672a2.108,2.108,0,0,0,2.1-2.092V10.541A2.062,2.062,0,0,0,52.1,8.6V8.021A2.09,2.09,0,0,0,50.02,5.934ZM43.362,4.849a2.228,2.228,0,0,1,2.162-2.054A2.115,2.115,0,0,1,47.637,4.9a2.183,2.183,0,0,1-.262,1.031H43.362ZM37.815,3.431a2.492,2.492,0,0,1,2.358-2.6,2.416,2.416,0,0,1,1.672.624,2.2,2.2,0,0,1,.682,1.663V5.934H39.5A2.593,2.593,0,0,1,37.815,3.431ZM34.629,8.6V8.021A1.249,1.249,0,0,1,35.873,6.77H42.53V9.847H35.873A1.257,1.257,0,0,1,34.629,8.6Zm15.3,10.425a1.274,1.274,0,0,1-1.264,1.26H37.224a1.274,1.274,0,0,1-1.264-1.26V10.675H49.932ZM51.263,8.6A1.245,1.245,0,0,1,50.02,9.843H43.362V6.766H50.02a1.251,1.251,0,0,1,1.243,1.252Z" transform="translate(-33.798)"/></g></g></g></svg>