<svg xmlns="http://www.w3.org/2000/svg" width="28.023" height="25.835" viewBox="0 0 28.023 25.835"><defs><style>.a{fill:#322f27;}</style></defs><g transform="translate(0 -19.988)"><g transform="translate(0 19.988)"><g transform="translate(0 0)"><path class="a" d="M296.858,435.989h-.438a.438.438,0,1,0,0,.876h.438a.438.438,0,0,0,0-.876Z" transform="translate(-279.782 -413.219)"/><path class="a" d="M327.982,436.427a.438.438,0,0,0,.438.438h.438a.438.438,0,0,0,0-.876h-.438A.438.438,0,0,0,327.982,436.427Z" transform="translate(-310.03 -413.219)"/><path class="a" d="M360.42,436.865h.438a.438.438,0,1,0,0-.876h-.438a.438.438,0,0,0,0,.876Z" transform="translate(-340.279 -413.219)"/><path class="a" d="M27.986,30.757q-.008-.017-.017-.034v0l-5.255-9.633c-.005-.01-.015-.015-.021-.025a.417.417,0,0,0-.067-.08.456.456,0,0,0-.044-.039.441.441,0,0,0-.09-.047.4.4,0,0,0-.053-.021c-.005,0-.01-.005-.015-.007L18.455,20a.457.457,0,0,0-.094-.01H9.629a.437.437,0,0,0-.1.011L5.6,20.874c-.007,0-.011.006-.018.007a.381.381,0,0,0-.062.026.429.429,0,0,0-.083.044.41.41,0,0,0-.044.041.418.418,0,0,0-.064.08c-.006.01-.016.016-.022.027L.049,31.17a.438.438,0,0,0,.188.59.43.43,0,0,0,.053.023l4.964,1.776V45.385a.438.438,0,0,0,.438.438H22.33a.438.438,0,0,0,.438-.438V33.523l4.992-2.189A.438.438,0,0,0,27.986,30.757ZM5.253,32.629l-4.2-1.5,4.2-8.042ZM17.1,20.864a2.75,2.75,0,0,1-2.687,2.189h-.8a2.751,2.751,0,0,1-2.688-2.189Zm4.8,24.083H6.129V21.652l3.547-.788h.35a3.634,3.634,0,0,0,3.586,3.065h.8A3.632,3.632,0,0,0,18,20.864h.32l3.577.788Zm.876-12.38V23.021l4.2,7.707Z" transform="translate(0 -19.988)"/></g></g></g></svg>