<svg xmlns="http://www.w3.org/2000/svg" width="15.792" height="15.792" viewBox="0 0 15.792 15.792"><defs><style>.a{fill:#77838f;}</style></defs><path class="a" d="M15.792,7.9a7.9,7.9,0,1,0-7.9,7.9A7.891,7.891,0,0,0,15.792,7.9ZM7.9.925A6.971,6.971,0,0,1,13.673,11.8a7.893,7.893,0,0,0-11.554,0A6.971,6.971,0,0,1,7.9.925ZM2.7,12.538a6.969,6.969,0,0,1,10.4,0A6.964,6.964,0,0,1,2.7,12.538Zm0,0"/><path class="a" d="M168.776,67.477a2.779,2.779,0,0,0,2.776-2.776v-.925a2.776,2.776,0,1,0-5.552,0V64.7A2.779,2.779,0,0,0,168.776,67.477Zm-1.851-3.7a1.851,1.851,0,1,1,3.7,0V64.7a1.851,1.851,0,1,1-3.7,0Zm0,0" transform="translate(-160.88 -59.119)"/></svg>